<?xml version="1.0" encoding="UTF-8"?>
<svg width="176px" height="41px" viewBox="0 0 176 41" version="1.1" xmlns="http://www.w3.org/2000/svg" xmlns:xlink="http://www.w3.org/1999/xlink">
    <title>Group 2</title>
    <g id="Page-1" stroke="none" stroke-width="1" fill="none" fill-rule="evenodd">
        <g id="Artboard-5" transform="translate(-409.000000, -499.000000)" fill="#FEFEFE">
            <g id="Group-2" transform="translate(409.540100, 499.162400)">
                <path d="M42.386,23.919 C42.324,23.908 42.271,23.883 42.205,23.883 C42.04,23.883 41.89,23.941 41.754,24.018 L34.418,15.727 L43.238,19.774 C43.205,19.869 43.179,19.965 43.179,20.071 C43.179,20.409 43.372,20.695 43.645,20.855 L42.386,23.919 Z M29.283,33.644 L32.462,30.549 C32.551,30.577 32.642,30.606 32.741,30.606 C33.25,30.606 33.662,30.192 33.662,29.685 C33.662,29.671 33.655,29.66 33.655,29.646 L39.814,26.399 L26.797,36.067 L29.283,33.644 Z M20.343,29.875 L27.438,30.991 C27.497,31.172 27.61,31.321 27.764,31.431 L25.419,35.708 L24.544,37.303 C24.508,37.299 24.477,37.283 24.439,37.283 C24.317,37.283 24.202,37.308 24.097,37.352 L20.138,30.191 C20.228,30.1 20.294,29.992 20.343,29.875 L20.343,29.875 Z M7.208,24.554 C7.211,24.514 7.228,24.479 7.228,24.439 C7.228,24.403 7.214,24.369 7.208,24.333 L14.924,19.865 L15.494,19.537 C15.6,19.626 15.73,19.682 15.873,19.715 L15.876,19.76 L15.896,19.719 C15.941,19.729 15.985,19.745 16.03,19.747 L19.033,28.754 C18.928,28.818 18.836,28.9 18.763,29 L7.208,24.554 Z M1.886,15.636 C2.01,15.544 2.115,15.435 2.182,15.296 L7.819,16.589 C7.81,16.635 7.791,16.674 7.791,16.721 C7.791,17.097 8.019,17.418 8.34,17.561 L7.928,18.928 L6.528,23.566 C6.458,23.547 6.388,23.522 6.31,23.522 C6.27,23.522 6.24,23.538 6.2,23.544 L1.886,15.636 Z M13.212,2.567 L14.863,11.534 L14.906,11.784 L7.687,4.232 C7.797,4.086 7.875,3.911 7.88,3.714 L12.427,2.079 C12.579,2.363 12.869,2.563 13.212,2.567 L13.212,2.567 Z M18.321,1.843 C18.353,1.843 18.382,1.827 18.412,1.823 L19.044,3.787 L20.426,8.067 L20.426,8.07 L14.063,2.023 C14.112,1.918 14.138,1.803 14.141,1.681 L17.524,1.352 C17.679,1.639 17.972,1.843 18.321,1.843 L18.321,1.843 Z M38.798,7.691 L30.872,6.602 C30.81,6.151 30.439,5.799 29.974,5.799 C29.888,5.799 29.81,5.826 29.73,5.849 L27.558,1.774 C27.59,1.747 27.627,1.724 27.659,1.692 L38.798,7.691 Z M7.049,23.921 C7.01,23.865 6.975,23.811 6.925,23.767 L8.777,17.63 C9.132,17.605 9.435,17.385 9.562,17.069 L15.163,18.935 C15.175,19.023 15.184,19.112 15.215,19.191 L12.758,20.616 L7.049,23.921 Z M1.388,7.816 L8.11,16.036 C8.062,16.079 8.026,16.128 7.987,16.179 L6.143,15.755 L2.273,14.867 C2.254,14.39 1.873,14.01 1.398,13.988 L1.205,7.902 C1.269,7.881 1.327,7.85 1.388,7.816 L1.388,7.816 Z M6.87,4.589 L7.774,10.737 L8.526,15.839 L8.52,15.84 L1.697,7.504 C1.78,7.366 1.842,7.212 1.842,7.037 C1.842,6.938 1.813,6.846 1.786,6.757 L6.365,4.373 C6.501,4.494 6.675,4.567 6.87,4.589 L6.87,4.589 Z M13.636,2.462 C13.692,2.435 13.738,2.399 13.787,2.362 L15.997,4.467 L20.109,8.373 C20.017,8.517 19.951,8.676 19.951,8.858 C19.951,8.958 19.977,9.05 20.01,9.14 L15.642,11.954 C15.56,11.915 15.465,11.901 15.373,11.89 L15.35,11.771 L13.636,2.462 Z M28.3,31.625 C28.735,31.625 29.081,31.32 29.176,30.915 L32.017,30.225 C32.034,30.252 32.05,30.288 32.074,30.314 L25.201,37.014 L28.171,31.599 C28.212,31.604 28.253,31.625 28.3,31.625 L28.3,31.625 Z M29.343,6.054 C29.179,6.211 29.076,6.428 29.063,6.672 L21.666,8.419 C21.642,8.376 21.615,8.336 21.584,8.297 L26.56,1.869 C26.692,1.938 26.833,1.987 26.99,1.987 C27.047,1.987 27.1,1.964 27.156,1.954 L28.786,5.005 L29.343,6.054 Z M32.829,28.78 L31.878,26.053 L31.581,25.206 C31.748,25.063 31.857,24.865 31.888,24.636 L39.56,24.98 L41.337,25.06 C41.34,25.073 41.34,25.087 41.344,25.099 L33.521,29.222 C33.375,28.977 33.126,28.809 32.829,28.78 L32.829,28.78 Z M20.349,29.238 L24.456,26.533 C24.613,26.659 24.807,26.745 25.023,26.745 C25.123,26.745 25.212,26.717 25.3,26.688 L27.566,30.173 C27.487,30.281 27.438,30.406 27.411,30.543 L20.39,29.439 C20.383,29.37 20.373,29.303 20.349,29.238 L20.349,29.238 Z M9.615,16.623 C9.605,16.547 9.595,16.472 9.569,16.403 L14.471,13.228 C14.617,13.485 14.87,13.662 15.178,13.694 L15.274,14.533 L15.674,18.007 C15.467,18.107 15.3,18.277 15.215,18.491 L12.57,17.609 L9.615,16.623 Z M28.912,30.024 L30.865,25.408 C30.912,25.415 30.947,25.434 30.995,25.434 C31.06,25.434 31.122,25.409 31.182,25.396 L32.385,28.834 C32.053,28.975 31.818,29.303 31.818,29.685 C31.818,29.731 31.839,29.773 31.846,29.816 L29.171,30.467 C29.125,30.294 29.043,30.141 28.912,30.024 L28.912,30.024 Z M29.14,7.103 C29.227,7.284 29.369,7.425 29.544,7.52 L27.9,15.737 C27.888,15.734 27.879,15.728 27.862,15.728 C27.705,15.728 27.564,15.777 27.436,15.847 L21.643,9.332 C21.732,9.191 21.794,9.036 21.794,8.858 C21.794,8.852 21.79,8.846 21.79,8.839 L25.626,7.934 L29.14,7.103 Z M33.079,14.514 C32.913,14.662 32.813,14.865 32.786,15.096 L29.959,15.912 L28.701,16.277 C28.623,16.099 28.482,15.962 28.32,15.868 L29.965,7.639 L29.974,7.641 C30.016,7.641 30.054,7.623 30.094,7.616 L30.29,8.07 L33.079,14.514 Z M30.995,23.593 C30.995,23.593 30.982,23.596 30.977,23.596 L28.423,17.363 C28.619,17.208 28.752,16.981 28.77,16.711 L31.324,15.974 L32.834,15.537 C32.896,15.686 32.998,15.807 33.126,15.905 L31.044,23.603 C31.025,23.603 31.011,23.593 30.995,23.593 L30.995,23.593 Z M25.931,25.89 L30.136,24.837 C30.202,25.005 30.316,25.139 30.459,25.242 L28.518,29.824 C28.448,29.807 28.376,29.781 28.3,29.781 C28.155,29.781 28.02,29.823 27.898,29.882 L25.679,26.466 C25.827,26.317 25.913,26.115 25.931,25.89 L25.931,25.89 Z M20.872,9.778 C21.043,9.778 21.197,9.72 21.33,9.639 L27.112,16.143 C27.011,16.291 26.941,16.458 26.941,16.648 C26.941,16.663 26.949,16.676 26.949,16.689 L16.938,18.586 C16.885,18.408 16.791,18.257 16.659,18.142 L20.701,9.744 C20.76,9.755 20.812,9.778 20.872,9.778 L20.872,9.778 Z M28.02,17.537 L30.556,23.72 C30.306,23.859 30.136,24.1 30.094,24.395 L25.863,25.455 C25.794,25.291 25.668,25.169 25.524,25.073 L27.888,17.564 C27.936,17.563 27.978,17.546 28.02,17.537 L28.02,17.537 Z M16.82,19.331 C16.882,19.241 16.924,19.14 16.947,19.031 L27.083,17.11 C27.174,17.263 27.301,17.391 27.462,17.468 L25.836,22.636 L25.113,24.922 C25.084,24.919 25.057,24.903 25.023,24.903 C24.788,24.903 24.586,24.995 24.421,25.139 L17.957,20.199 L16.82,19.331 Z M15.612,13.64 C15.949,13.504 16.186,13.175 16.186,12.789 C16.186,12.583 16.109,12.401 15.988,12.248 L20.23,9.517 C20.251,9.536 20.277,9.547 20.301,9.563 L16.261,17.952 C16.211,17.941 16.159,17.924 16.105,17.922 L15.649,13.962 L15.612,13.64 Z M7.352,4.517 L14.63,12.126 C14.455,12.294 14.346,12.527 14.346,12.789 L14.346,12.791 L12.533,13.962 L9.32,16.041 C9.222,15.952 9.1,15.892 8.97,15.853 L7.304,4.54 C7.322,4.533 7.336,4.524 7.352,4.517 L7.352,4.517 Z M19.451,28.625 L16.462,19.658 C16.477,19.651 16.485,19.641 16.495,19.633 L24.169,25.494 C24.13,25.597 24.102,25.707 24.102,25.824 C24.102,25.955 24.132,26.078 24.179,26.191 L20.116,28.869 C19.951,28.716 19.731,28.616 19.487,28.616 C19.472,28.616 19.465,28.623 19.451,28.625 L19.451,28.625 Z M41.321,24.622 L33.698,24.28 L31.85,24.196 C31.777,24.001 31.639,23.845 31.461,23.74 L33.528,16.083 C33.583,16.092 33.632,16.116 33.688,16.116 C33.834,16.116 33.968,16.074 34.089,16.013 L41.439,24.326 C41.383,24.415 41.344,24.514 41.321,24.622 L41.321,24.622 Z M39.366,8.411 L38.876,8.946 L33.972,14.33 C33.885,14.299 33.788,14.271 33.688,14.271 C33.61,14.271 33.543,14.297 33.469,14.316 L30.501,7.455 C30.648,7.35 30.768,7.21 30.83,7.037 L39.29,8.201 C39.311,8.273 39.33,8.343 39.366,8.411 L39.366,8.411 Z M43.479,19.402 L34.583,15.322 C34.59,15.277 34.609,15.238 34.609,15.192 C34.609,14.947 34.508,14.727 34.354,14.564 L37.945,10.616 L39.66,8.734 C39.771,8.806 39.887,8.853 40.023,8.876 L43.729,19.231 C43.635,19.273 43.55,19.331 43.479,19.402 L43.479,19.402 Z M18.823,1.674 C18.977,1.572 19.105,1.438 19.176,1.266 L26.109,1.266 C26.133,1.378 26.175,1.48 26.24,1.572 L21.247,8.02 C21.13,7.967 21.005,7.937 20.872,7.937 C20.862,7.937 20.856,7.942 20.846,7.942 L18.982,2.172 L18.823,1.674 Z M44.169,19.165 L40.477,8.843 C40.831,8.715 41.089,8.383 41.089,7.985 C41.089,7.477 40.679,7.063 40.169,7.063 C39.836,7.063 39.557,7.25 39.396,7.515 L27.86,1.304 C27.883,1.228 27.909,1.151 27.909,1.066 C27.909,0.557 27.497,0.145 26.99,0.145 C26.566,0.145 26.224,0.438 26.113,0.827 L19.225,0.827 C19.176,0.365 18.799,-4.26325641e-14 18.321,-4.26325641e-14 C17.816,-4.26325641e-14 17.4,0.412 17.4,0.921 L17.403,0.924 L14.05,1.251 C13.898,0.945 13.592,0.728 13.228,0.728 C12.718,0.728 12.307,1.141 12.307,1.648 L12.307,1.655 L7.783,3.286 C7.632,2.981 7.326,2.767 6.964,2.767 C6.457,2.767 6.043,3.179 6.043,3.689 C6.043,3.804 6.07,3.911 6.108,4.011 L1.562,6.38 C1.396,6.218 1.168,6.118 0.919,6.118 C0.413,6.118 -2.84217094e-14,6.528 -2.84217094e-14,7.037 C-2.84217094e-14,7.491 0.335,7.852 0.769,7.928 L0.961,14.077 C0.654,14.227 0.437,14.536 0.437,14.901 C0.437,15.409 0.847,15.823 1.359,15.823 C1.398,15.823 1.435,15.804 1.475,15.798 L5.789,23.702 C5.554,23.869 5.388,24.13 5.388,24.439 C5.388,24.949 5.801,25.361 6.31,25.361 C6.62,25.361 6.882,25.198 7.049,24.961 L18.594,29.4 C18.587,29.448 18.569,29.488 18.569,29.538 C18.569,30.047 18.981,30.459 19.487,30.459 C19.583,30.459 19.671,30.431 19.757,30.406 L23.744,37.619 C23.61,37.78 23.52,37.978 23.52,38.205 C23.52,38.714 23.932,39.124 24.439,39.124 C24.951,39.124 25.362,38.714 25.362,38.205 C25.362,38.044 25.309,37.902 25.238,37.77 L41.694,25.55 C41.844,25.652 42.011,25.725 42.205,25.725 C42.717,25.725 43.129,25.314 43.129,24.804 C43.129,24.517 42.987,24.271 42.781,24.1 L44.063,20.985 C44.071,20.985 44.086,20.991 44.1,20.991 C44.607,20.991 45.021,20.58 45.021,20.071 C45.021,19.587 44.645,19.202 44.169,19.165 L44.169,19.165 Z" id="Fill-369"></path>
                <path d="M57.2072,13.2235 C56.7282,13.2235 56.2972,13.1625 55.9132,13.0415 C55.5302,12.9205 55.2042,12.7335 54.9362,12.4805 C54.6682,12.2285 54.4612,11.9095 54.3182,11.5225 C54.1742,11.1365 54.1022,10.6805 54.1022,10.1575 L54.1022,6.3905 L56.0002,6.3905 L56.0002,10.1185 C56.0002,10.6045 56.1102,10.9635 56.3322,11.1965 C56.5542,11.4305 56.8522,11.5465 57.2262,11.5465 C57.6002,11.5465 57.8982,11.4345 58.1202,11.2115 C58.3422,10.9875 58.4532,10.6395 58.4532,10.1665 L58.4532,6.3905 L60.3502,6.3905 L60.3502,10.1095 C60.3502,10.6525 60.2752,11.1195 60.1252,11.5135 C59.9752,11.9055 59.7642,12.2285 59.4922,12.4805 C59.2212,12.7335 58.8922,12.9205 58.5052,13.0415 C58.1192,13.1625 57.6862,13.2235 57.2072,13.2235" id="Fill-370"></path>
                <polygon id="Fill-371" points="61.4524 6.3908 63.1904 6.3908 65.9564 9.9368 65.9564 6.3908 67.7864 6.3908 67.7864 13.0988 66.1544 13.0988 63.2824 9.4188 63.2824 13.0988 61.4524 13.0988"></polygon>
                <polygon id="Fill-372" points="69.0129 13.0986 70.8819 13.0986 70.8819 6.3906 69.0129 6.3906"></polygon>
                <polygon id="Fill-373" points="71.5717 6.3908 73.6517 6.3908 75.1747 10.6358 76.6987 6.3908 78.7397 6.3908 76.0187 13.1468 74.2937 13.1468"></polygon>
                <polygon id="Fill-374" points="79.3913 6.3908 84.7773 6.3908 84.7773 7.9718 81.2213 7.9718 81.2213 8.9878 84.4413 8.9878 84.4413 10.4538 81.2213 10.4538 81.2213 11.5178 84.8253 11.5178 84.8253 13.0988 79.3913 13.0988"></polygon>
                <path d="M88.8687,9.6107 C89.1877,9.6107 89.4337,9.5387 89.6067,9.3947 C89.7787,9.2517 89.8657,9.0587 89.8657,8.8157 L89.8657,8.7957 C89.8657,8.5277 89.7757,8.3287 89.5967,8.1967 C89.4177,8.0667 89.1717,8.0007 88.8587,8.0007 L87.6417,8.0007 L87.6417,9.6107 L88.8687,9.6107 Z M85.7827,6.3907 L88.9547,6.3907 C89.4727,6.3907 89.9097,6.4547 90.2677,6.5827 C90.6257,6.7107 90.9157,6.8887 91.1397,7.1187 C91.5357,7.5027 91.7337,8.0237 91.7337,8.6807 L91.7337,8.7007 C91.7337,9.2177 91.6097,9.6457 91.3607,9.9847 C91.1107,10.3227 90.7757,10.5817 90.3537,10.7607 L91.9547,13.0987 L89.8077,13.0987 L88.4567,11.0677 L88.4377,11.0677 L87.6417,11.0677 L87.6417,13.0987 L85.7827,13.0987 L85.7827,6.3907 Z" id="Fill-375"></path>
                <path d="M95.3084,13.2139 C94.7074,13.2139 94.1374,13.1209 93.5974,12.9349 C93.0584,12.7479 92.5804,12.4679 92.1654,12.0949 L93.2004,10.8569 C93.8714,11.3929 94.5964,11.6619 95.3754,11.6619 C95.6244,11.6619 95.8144,11.6219 95.9454,11.5419 C96.0764,11.4619 96.1424,11.3489 96.1424,11.2019 L96.1424,11.1829 C96.1424,11.1129 96.1264,11.0509 96.0944,10.9969 C96.0624,10.9429 96.0034,10.8899 95.9174,10.8389 C95.8304,10.7879 95.7154,10.7389 95.5724,10.6909 C95.4284,10.6429 95.2414,10.5929 95.0114,10.5419 C94.6534,10.4599 94.3214,10.3689 94.0144,10.2699 C93.7084,10.1709 93.4414,10.0429 93.2144,9.8869 C92.9874,9.7309 92.8084,9.5359 92.6774,9.3039 C92.5464,9.0709 92.4814,8.7819 92.4814,8.4379 L92.4814,8.4189 C92.4814,8.1059 92.5404,7.8189 92.6584,7.5579 C92.7764,7.2969 92.9494,7.0699 93.1764,6.8789 C93.4024,6.6869 93.6764,6.5389 93.9954,6.4339 C94.3154,6.3289 94.6764,6.2759 95.0784,6.2759 C95.6534,6.2759 96.1664,6.3519 96.6164,6.5029 C97.0664,6.6539 97.4744,6.8769 97.8384,7.1729 L96.9084,8.4899 C96.6024,8.2729 96.2874,8.1079 95.9644,7.9959 C95.6424,7.8839 95.3304,7.8279 95.0304,7.8279 C94.8064,7.8279 94.6394,7.8699 94.5274,7.9529 C94.4154,8.0359 94.3594,8.1379 94.3594,8.2589 L94.3594,8.2779 C94.3594,8.3549 94.3774,8.4209 94.4124,8.4789 C94.4474,8.5359 94.5084,8.5889 94.5944,8.6369 C94.6804,8.6849 94.7984,8.7329 94.9494,8.7799 C95.0994,8.8279 95.2894,8.8779 95.5194,8.9289 C95.9024,9.0119 96.2494,9.1089 96.5594,9.2199 C96.8684,9.3319 97.1324,9.4669 97.3494,9.6269 C97.5664,9.7859 97.7324,9.9789 97.8474,10.2059 C97.9624,10.4319 98.0204,10.7019 98.0204,11.0139 L98.0204,11.0329 C98.0204,11.3769 97.9544,11.6839 97.8244,11.9509 C97.6924,12.2189 97.5094,12.4469 97.2724,12.6349 C97.0364,12.8239 96.7524,12.9669 96.4204,13.0659 C96.0874,13.1649 95.7174,13.2139 95.3084,13.2139" id="Fill-376"></path>
                <polygon id="Fill-377" points="98.9599 13.0986 100.8289 13.0986 100.8289 6.3906 98.9599 6.3906"></polygon>
                <polygon id="Fill-378" points="103.6933 8.0199 101.6813 8.0199 101.6813 6.3909 107.5643 6.3909 107.5643 8.0199 105.5523 8.0199 105.5523 13.0989 103.6933 13.0989"></polygon>
                <polygon id="Fill-379" points="110.3149 10.5882 107.7659 6.3912 109.8839 6.3912 111.2639 8.8342 112.6529 6.3912 114.7329 6.3912 112.1839 10.5592 112.1839 13.0992 110.3149 13.0992"></polygon>
                <polygon id="Fill-380" points="115.3076 6.3908 117.1666 6.3908 117.1666 8.9018 119.5526 8.9018 119.5526 6.3908 121.4116 6.3908 121.4116 13.0988 119.5526 13.0988 119.5526 10.5498 117.1666 10.5498 117.1666 13.0988 115.3076 13.0988"></polygon>
                <path d="M126.5482,10.4636 L125.8012,8.5566 L125.0432,10.4636 L126.5482,10.4636 Z M124.9192,6.3426 L126.7112,6.3426 L129.5672,13.0986 L127.5732,13.0986 L127.0852,11.9016 L124.4972,11.9016 L124.0182,13.0986 L122.0632,13.0986 L124.9192,6.3426 Z" id="Fill-381"></path>
                <path d="M133.4478,13.2331 C132.9688,13.2331 132.5178,13.1471 132.0968,12.9741 C131.6748,12.8021 131.3088,12.5611 130.9998,12.2511 C130.6898,11.9411 130.4438,11.5741 130.2618,11.1491 C130.0798,10.7241 129.9888,10.2621 129.9888,9.7641 L129.9888,9.7451 C129.9888,9.2591 130.0778,8.8041 130.2568,8.3791 C130.4358,7.9541 130.6818,7.5841 130.9948,7.2681 C131.3078,6.9511 131.6798,6.7041 132.1108,6.5251 C132.5418,6.3461 133.0138,6.2571 133.5248,6.2571 C133.8698,6.2571 134.1828,6.2901 134.4638,6.3571 C134.7448,6.4241 135.0018,6.5201 135.2348,6.6451 C135.4678,6.7691 135.6788,6.9181 135.8678,7.0901 C136.0558,7.2631 136.2238,7.4511 136.3708,7.6561 L134.9718,8.7391 C134.7798,8.4961 134.5688,8.3041 134.3388,8.1641 C134.1088,8.0231 133.8308,7.9531 133.5058,7.9531 C133.2688,7.9531 133.0538,7.9991 132.8588,8.0921 C132.6638,8.1841 132.4958,8.3111 132.3558,8.4701 C132.2148,8.6301 132.1048,8.8181 132.0248,9.0361 C131.9448,9.2531 131.9048,9.4831 131.9048,9.7261 L131.9048,9.7451 C131.9048,9.9941 131.9448,10.2291 132.0248,10.4491 C132.1048,10.6691 132.2148,10.8601 132.3558,11.0191 C132.4958,11.1791 132.6638,11.3051 132.8588,11.3981 C133.0538,11.4901 133.2688,11.5371 133.5058,11.5371 C133.6778,11.5371 133.8358,11.5181 133.9798,11.4791 C134.1238,11.4411 134.2548,11.3851 134.3728,11.3121 C134.4908,11.2381 134.6028,11.1521 134.7078,11.0531 C134.8138,10.9541 134.9168,10.8441 135.0198,10.7221 L136.4188,11.7191 C136.2588,11.9361 136.0848,12.1371 135.8958,12.3231 C135.7078,12.5081 135.4938,12.6681 135.2538,12.8021 C135.0148,12.9361 134.7468,13.0411 134.4488,13.1181 C134.1518,13.1951 133.8178,13.2331 133.4478,13.2331" id="Fill-382"></path>
                <polygon id="Fill-383" points="137.2139 6.3908 139.0729 6.3908 139.0729 9.1128 141.3829 6.3908 143.5869 6.3908 141.0469 9.2748 143.6729 13.0988 141.4399 13.0988 139.7529 10.6068 139.0729 11.3648 139.0729 13.0988 137.2139 13.0988"></polygon>
                <path d="M146.5857,11.6997 L149.0967,9.7837 C149.4097,9.5407 149.6317,9.3297 149.7627,9.1507 C149.8937,8.9717 149.9587,8.7807 149.9587,8.5757 C149.9587,8.3647 149.8907,8.1987 149.7527,8.0777 C149.6157,7.9567 149.4347,7.8957 149.2117,7.8957 C148.9877,7.8957 148.7757,7.9637 148.5737,8.1017 C148.3727,8.2387 148.1417,8.4577 147.8797,8.7577 L146.6237,7.7137 C146.8027,7.4837 146.9847,7.2787 147.1707,7.0997 C147.3557,6.9207 147.5547,6.7707 147.7697,6.6497 C147.9837,6.5287 148.2197,6.4357 148.4787,6.3717 C148.7367,6.3077 149.0297,6.2757 149.3557,6.2757 C149.7197,6.2757 150.0527,6.3287 150.3567,6.4337 C150.6597,6.5397 150.9207,6.6847 151.1377,6.8697 C151.3547,7.0557 151.5237,7.2807 151.6457,7.5457 C151.7667,7.8107 151.8277,8.0997 151.8277,8.4127 L151.8277,8.4317 C151.8277,8.7007 151.7937,8.9397 151.7267,9.1507 C151.6597,9.3617 151.5597,9.5577 151.4247,9.7397 C151.2907,9.9217 151.1277,10.0967 150.9367,10.2627 C150.7447,10.4287 150.5247,10.6007 150.2747,10.7797 L149.1247,11.5847 L151.8947,11.5847 L151.8947,13.0987 L146.5857,13.0987 L146.5857,11.6997 Z" id="Fill-384"></path>
                <path d="M155.7566,11.5847 C155.9416,11.5847 156.1116,11.5397 156.2646,11.4507 C156.4176,11.3617 156.5476,11.2347 156.6526,11.0717 C156.7576,10.9087 156.8396,10.7177 156.8966,10.4967 C156.9546,10.2767 156.9836,10.0327 156.9836,9.7637 L156.9836,9.7447 C156.9836,9.4767 156.9526,9.2307 156.8926,9.0067 C156.8316,8.7837 156.7466,8.5897 156.6386,8.4277 C156.5296,8.2647 156.3986,8.1367 156.2456,8.0437 C156.0916,7.9517 155.9226,7.9047 155.7376,7.9047 C155.5516,7.9047 155.3846,7.9497 155.2346,8.0387 C155.0846,8.1287 154.9546,8.2527 154.8466,8.4127 C154.7376,8.5727 154.6546,8.7647 154.5966,8.9877 C154.5396,9.2117 154.5106,9.4577 154.5106,9.7257 L154.5106,9.7447 C154.5106,10.0127 154.5406,10.2607 154.6016,10.4877 C154.6626,10.7147 154.7466,10.9087 154.8556,11.0717 C154.9646,11.2347 155.0956,11.3617 155.2486,11.4507 C155.4016,11.5397 155.5716,11.5847 155.7566,11.5847 M155.7376,13.2327 C155.2586,13.2327 154.8266,13.1417 154.4436,12.9597 C154.0606,12.7777 153.7356,12.5287 153.4706,12.2127 C153.2056,11.8957 153.0016,11.5277 152.8576,11.1057 C152.7136,10.6837 152.6426,10.2367 152.6426,9.7637 L152.6426,9.7447 C152.6426,9.2717 152.7156,8.8237 152.8626,8.3987 C153.0096,7.9737 153.2176,7.6027 153.4856,7.2867 C153.7536,6.9707 154.0796,6.7197 154.4626,6.5347 C154.8466,6.3497 155.2776,6.2567 155.7566,6.2567 C156.2356,6.2567 156.6656,6.3477 157.0456,6.5297 C157.4256,6.7117 157.7496,6.9607 158.0186,7.2777 C158.2866,7.5937 158.4926,7.9627 158.6366,8.3837 C158.7796,8.8057 158.8516,9.2527 158.8516,9.7257 L158.8516,9.7447 C158.8516,10.2177 158.7796,10.6667 158.6366,11.0917 C158.4926,11.5157 158.2846,11.8867 158.0136,12.2027 C157.7416,12.5187 157.4146,12.7697 157.0306,12.9547 C156.6476,13.1407 156.2166,13.2327 155.7376,13.2327" id="Fill-385"></path>
                <path d="M159.5609,11.6997 L162.0719,9.7837 C162.3849,9.5407 162.6069,9.3297 162.7379,9.1507 C162.8689,8.9717 162.9339,8.7807 162.9339,8.5757 C162.9339,8.3647 162.8659,8.1987 162.7279,8.0777 C162.5909,7.9567 162.4099,7.8957 162.1869,7.8957 C161.9629,7.8957 161.7509,7.9637 161.5489,8.1017 C161.3479,8.2387 161.1169,8.4577 160.8549,8.7577 L159.5989,7.7137 C159.7779,7.4837 159.9599,7.2787 160.1459,7.0997 C160.3309,6.9207 160.5299,6.7707 160.7449,6.6497 C160.9589,6.5287 161.1949,6.4357 161.4539,6.3717 C161.7119,6.3077 162.0049,6.2757 162.3309,6.2757 C162.6949,6.2757 163.0279,6.3287 163.3319,6.4337 C163.6349,6.5397 163.8959,6.6847 164.1129,6.8697 C164.3299,7.0557 164.4989,7.2807 164.6209,7.5457 C164.7419,7.8107 164.8029,8.0997 164.8029,8.4127 L164.8029,8.4317 C164.8029,8.7007 164.7689,8.9397 164.7019,9.1507 C164.6349,9.3617 164.5349,9.5577 164.3999,9.7397 C164.2659,9.9217 164.1029,10.0967 163.9119,10.2627 C163.7199,10.4287 163.4999,10.6007 163.2499,10.7797 L162.0999,11.5847 L164.8699,11.5847 L164.8699,13.0987 L159.5609,13.0987 L159.5609,11.6997 Z" id="Fill-386"></path>
                <path d="M168.9042,10.4156 L168.9042,8.4896 L167.3042,10.4156 L168.9042,10.4156 Z M168.9042,11.7956 L165.6552,11.7956 L165.3492,10.4826 L168.8272,6.3426 L170.7062,6.3426 L170.7062,10.4056 L171.5582,10.4056 L171.5582,11.7956 L170.7062,11.7956 L170.7062,13.0986 L168.9042,13.0986 L168.9042,11.7956 Z" id="Fill-387"></path>
                <path d="M173.5631,7.1465 L173.7731,7.1465 C173.8181,7.1465 173.8631,7.1445 173.9081,7.1415 C173.9521,7.1375 173.9921,7.1295 174.0291,7.1155 C174.0651,7.0985 174.0941,7.0755 174.1161,7.0465 C174.1381,7.0165 174.1501,6.9745 174.1501,6.9185 C174.1501,6.8765 174.1401,6.8415 174.1231,6.8135 C174.1061,6.7855 174.0841,6.7635 174.0561,6.7475 C174.0291,6.7315 173.9981,6.7185 173.9631,6.7125 C173.9261,6.7055 173.8921,6.7025 173.8551,6.7025 L173.5631,6.7025 L173.5631,7.1465 Z M173.5631,7.8705 L173.3951,7.8705 L173.3951,6.5545 L173.9021,6.5545 C174.0521,6.5545 174.1541,6.5855 174.2211,6.6485 C174.2841,6.7105 174.3161,6.8015 174.3161,6.9185 C174.3161,6.9795 174.3061,7.0325 174.2891,7.0755 C174.2711,7.1185 174.2481,7.1555 174.2181,7.1845 C174.1841,7.2145 174.1521,7.2375 174.1111,7.2565 C174.0711,7.2735 174.0311,7.2845 173.9841,7.2925 L174.3771,7.8705 L174.1891,7.8705 L173.7961,7.2925 L173.5631,7.2925 L173.5631,7.8705 Z M172.8351,7.2165 C172.8351,7.3505 172.8591,7.4785 172.9101,7.5955 C172.9641,7.7155 173.0321,7.8185 173.1201,7.9065 C173.2091,7.9935 173.3111,8.0645 173.4291,8.1155 C173.5481,8.1655 173.6751,8.1915 173.8091,8.1915 C173.9461,8.1915 174.0711,8.1655 174.1891,8.1155 C174.3081,8.0645 174.4131,7.9935 174.4981,7.9065 C174.5891,7.8185 174.6561,7.7155 174.7061,7.5955 C174.7611,7.4785 174.7851,7.3505 174.7851,7.2165 C174.7851,7.0805 174.7611,6.9545 174.7061,6.8365 C174.6561,6.7175 174.5891,6.6145 174.4981,6.5265 C174.4131,6.4385 174.3081,6.3695 174.1891,6.3185 C174.0711,6.2685 173.9461,6.2405 173.8091,6.2405 C173.6751,6.2405 173.5481,6.2685 173.4291,6.3185 C173.3111,6.3695 173.2091,6.4385 173.1201,6.5265 C173.0321,6.6145 172.9641,6.7175 172.9101,6.8365 C172.8591,6.9545 172.8351,7.0805 172.8351,7.2165 L172.8351,7.2165 Z M172.6701,7.2165 C172.6701,7.0585 172.6991,6.9125 172.7591,6.7735 C172.8201,6.6345 172.9031,6.5145 173.0071,6.4125 C173.1071,6.3085 173.2301,6.2265 173.3661,6.1665 C173.5051,6.1065 173.6531,6.0745 173.8091,6.0745 C173.9671,6.0745 174.1151,6.1065 174.2541,6.1665 C174.3911,6.2265 174.5101,6.3085 174.6161,6.4125 C174.7181,6.5145 174.8011,6.6345 174.8621,6.7735 C174.9201,6.9125 174.9511,7.0585 174.9511,7.2165 C174.9511,7.3745 174.9201,7.5215 174.8621,7.6595 C174.8011,7.7965 174.7181,7.9185 174.6161,8.0225 C174.5101,8.1235 174.3911,8.2075 174.2541,8.2665 C174.1151,8.3275 173.9671,8.3575 173.8091,8.3575 C173.6531,8.3575 173.5051,8.3275 173.3661,8.2665 C173.2301,8.2075 173.1071,8.1235 173.0071,8.0225 C172.9031,7.9185 172.8201,7.7965 172.7591,7.6595 C172.6991,7.5215 172.6701,7.3745 172.6701,7.2165 L172.6701,7.2165 Z" id="Fill-388"></path>
                <path d="M55.3036,18.2383 L55.3036,31.5353 L61.1636,31.5353 C65.7946,31.5353 67.9326,28.0633 67.8646,24.7213 C67.7986,21.4693 65.6606,18.2383 61.1636,18.2383 L55.3036,18.2383 Z M69.0656,24.7213 C69.1566,28.6853 66.6186,32.6903 61.1636,32.6903 L54.1026,32.6903 L54.1026,17.1043 L61.1636,17.1043 C66.4406,17.1043 68.9766,20.8903 69.0656,24.7213 L69.0656,24.7213 Z" id="Fill-389"></path>
                <polygon id="Fill-390" points="88.4594 18.1951 82.8244 18.1951 82.8244 17.1261 95.2964 17.1261 95.2964 18.1951 89.6624 18.1951 89.6624 32.6911 88.4594 32.6911"></polygon>
                <polygon id="Fill-391" points="114.9348 19.777 109.9908 19.777 109.9908 17.104 122.8158 17.104 122.8158 19.777 117.8728 19.777 117.8728 32.691 114.9348 32.691"></polygon>
                <polygon id="Fill-392" points="135.2192 32.715 135.2192 26.415 127.5572 26.415 127.5572 32.715 124.6172 32.715 124.6172 17.126 127.5572 17.126 127.5572 23.696 135.2192 23.696 135.2192 17.126 138.1362 17.126 138.1362 32.715"></polygon>
                <path d="M143.0999,25.0556 C143.1679,27.6146 144.5469,30.3546 148.2209,30.3546 C151.8939,30.3546 153.2749,27.5946 153.3199,25.0326 C153.3659,22.4046 151.8939,19.4666 148.2209,19.4666 C144.5469,19.4666 143.0319,22.4276 143.0999,25.0556 M156.2149,24.9886 C156.1699,29.0196 153.6999,33.0496 148.2209,33.0496 C142.7419,33.0496 140.2029,29.1076 140.2029,25.0096 C140.2029,20.9116 142.8329,16.7926 148.2209,16.7926 C153.5869,16.7926 156.2589,20.9116 156.2149,24.9886" id="Fill-393"></path>
                <polygon id="Fill-394" points="168.6154 17.0802 171.5584 17.0802 171.5584 32.6912 169.7304 32.6912 161.5334 22.1822 161.5334 32.6912 158.5944 32.6912 158.5944 17.1042 160.9764 17.1042 168.6154 26.7702"></polygon>
                <polygon id="Fill-395" points="83.2955 32.6907 84.5845 32.6907 77.5935 17.1047 76.2815 17.1047 69.2885 32.6907 76.9375 32.6907 76.0495 31.5787 71.0705 31.5787 76.9245 18.2627"></polygon>
                <polygon id="Fill-396" points="103.3788 17.1045 102.0638 17.1045 95.0728 32.6905 96.3628 32.6905 102.7318 18.2625 108.5888 31.5785 103.6098 31.5785 102.7208 32.6905 110.3698 32.6905"></polygon>
            </g>
        </g>
    </g>
</svg>